<svg width="18" height="18" fill="none" xmlns="http://www.w3.org/2000/svg"><path fill-rule="evenodd" clip-rule="evenodd" d="M17 2h-1.17a3.001 3.001 0 00-5.66 0H1a1 1 0 000 2h9.17a3.001 3.001 0 005.66 0H17a1 1 0 100-2zm-4 2a1 1 0 100-2 1 1 0 000 2zM0 9a1 1 0 011-1h1.17a3.001 3.001 0 015.66 0H17a1 1 0 110 2H7.83a3.001 3.001 0 01-5.66 0H1a1 1 0 01-1-1zm5 1a1 1 0 100-2 1 1 0 000 2zm-4 4a1 1 0 100 2h9.17a3.001 3.001 0 005.66 0H17a1 1 0 100-2h-1.17a3.001 3.001 0 00-5.66 0H1zm13 1a1 1 0 11-2 0 1 1 0 012 0z" fill="#E5E5E5"/></svg>